<svg width="69" height="50" viewBox="0 0 69 50" fill="none" xmlns="http://www.w3.org/2000/svg">
<path d="M0.287972 11.0383C0.133198 9.28423 1.51543 7.77466 3.27636 7.77466H65.7996C67.5327 7.77466 68.9053 9.23891 68.7934 10.9684L66.8722 40.6586C66.5658 45.3937 62.6359 49.0775 57.891 49.0775H11.8852C7.22123 49.0775 3.32998 45.5145 2.92005 40.8685L0.287972 11.0383Z" fill="#D2E7F5"/>
<path d="M3.88733 4.37324V2C3.88733 0.895431 4.78276 0 5.88733 0H26.0316C26.6251 0 27.188 0.263646 27.568 0.719631L30.013 3.65361C30.393 4.10959 30.9559 4.37324 31.5494 4.37324H62.6268C63.7313 4.37324 64.6268 5.26867 64.6268 6.37324V7.77465H3.88733V4.37324Z" fill="#84BFE6"/>
</svg>
